<?xml version="1.0" encoding="iso-8859-1"?>
<!-- Uploaded to: SVG Repo, www.svgrepo.com, Generator: SVG Repo Mixer Tools -->
<svg fill="#000000" height="800px" width="800px" version="1.1" id="Layer_1" xmlns="http://www.w3.org/2000/svg" xmlns:xlink="http://www.w3.org/1999/xlink" 
	 viewBox="0 0 512 512" xml:space="preserve">
<g>
	<g>
		<g>
			<path d="M383.179,251.925c-0.534-1.304-1.32-2.49-2.315-3.488l-85.333-85.333c-4.237-4.093-10.99-3.976-15.083,0.262
				c-3.993,4.134-3.993,10.687,0,14.821l67.136,67.147H10.667C4.776,245.333,0,250.109,0,256c0,5.891,4.776,10.667,10.667,10.667
				h336.917l-67.125,67.125c-4.237,4.093-4.354,10.846-0.261,15.083c4.093,4.237,10.846,4.354,15.083,0.261
				c0.089-0.086,0.176-0.173,0.261-0.261l85.333-85.333c3.052-3.051,3.966-7.64,2.315-11.627L383.179,251.925z"/>
			<path d="M501.333,0c-5.891,0-10.667,4.776-10.667,10.667v490.667c0,5.891,4.776,10.667,10.667,10.667S512,507.224,512,501.333
				V10.667C512,4.776,507.224,0,501.333,0z"/>
		</g>
	</g>
</g>
</svg>